<svg width="100" height="100" xmlns="http://www.w3.org/2000/svg" xml:space="preserve" version="1.1">
 <title>agua</title>

 <g>
  <title>Layer 1</title>
  <path id="svg_1" d="m52.47466,14.01406c-0.04966,-0.06621 -0.11587,-0.11587 -0.14898,-0.16553c0,0 -0.01655,-0.01655 -0.01655,-0.01655c-0.5959,-0.5628 -1.40699,-0.91041 -2.30085,-0.91041c-0.91041,0 -1.7215,0.34761 -2.30085,0.91041c0,0 -0.01655,0.01655 -0.01655,0.01655c-0.04966,0.04966 -0.09932,0.09932 -0.14898,0.16553c-1.00973,1.04283 -2.2843,2.38361 -3.70784,3.98924c-2.8802,3.26092 -6.38941,7.61432 -9.68343,12.7126c-5.52866,8.57439 -10.41175,19.21788 -10.61039,30.3083c0,0.21519 -0.01655,0.44693 -0.01655,0.66211c0,3.26092 0.64556,6.37285 1.80426,9.2365c0.67867,1.65529 1.52286,3.21126 2.51604,4.66791c4.71757,6.9191 12.87813,11.48769 22.14774,11.48769c14.63274,0 26.48459,-11.37182 26.48459,-25.3921c0,-21.17112 -17.41362,-40.9518 -24.00166,-47.67226zm-2.48293,63.79476c-2.61535,0 -5.08173,-0.61246 -7.26671,-1.67184c10.90834,-2.38361 19.5986,-10.70971 22.4788,-21.43597c0.86075,2.0029 1.35734,4.22098 1.35734,6.55494c-0.01655,9.13718 -7.43224,16.55287 -16.56942,16.55287z"/>
 </g>
</svg>