<svg width="100" height="100" xmlns="http://www.w3.org/2000/svg" xml:space="preserve" enable-background="new 0 0 512 512" version="1.1">
 <title>Compressed</title>

 <g>
  <title>Layer 1</title>
  <g id="svg_1">
   <path id="svg_2" d="m57.20058,78.59667l0,7.71146c0,0.88521 -0.72134,1.60655 -1.60655,1.60655l-11.18804,0c-0.88521,0 -1.60655,-0.72134 -1.60655,-1.60655l0,-7.71146l14.40115,0z"/>
   <path id="svg_3" d="m65.19961,61.68126l0,8.07936c0,3.10065 -2.52229,5.62294 -5.62294,5.62294l-19.15334,0c-3.10065,0 -5.62294,-2.52229 -5.62294,-5.62294l0,-8.07936c4.40678,2.77613 9.61844,4.38429 15.19961,4.38429s10.79283,-1.60816 15.19961,-4.38429z"/>
   <path id="svg_4" d="m50,12.08532c-13.9963,0 -25.38356,11.38726 -25.38356,25.38356s11.38726,25.38356 25.38356,25.38356s25.38356,-11.38726 25.38356,-25.38356s-11.38726,-25.38356 -25.38356,-25.38356zm17.60462,35.50646c-0.00482,0.00964 -0.00964,0.02089 -0.01607,0.03052c-0.00643,0.01125 -0.01446,0.02089 -0.02089,0.03052c-1.77685,3.05567 -4.32806,5.60687 -7.38372,7.38372c-0.00964,0.00643 -0.01928,0.01446 -0.02892,0.01928c-0.00482,0.00321 -0.01125,0.00482 -0.01607,0.00803c-2.98498,1.72705 -6.44871,2.71668 -10.13896,2.71668s-7.15399,-0.98964 -10.13896,-2.71668c-0.00482,-0.00321 -0.01125,-0.00482 -0.01607,-0.00803c-0.00964,-0.00482 -0.01928,-0.01285 -0.02892,-0.01928c-3.05567,-1.77685 -5.60687,-4.32806 -7.38372,-7.38372c-0.00643,-0.00964 -0.01446,-0.01928 -0.02089,-0.03052c-0.00643,-0.00964 -0.01125,-0.02089 -0.01607,-0.03052c-1.72223,-2.98176 -2.70704,-6.43907 -2.70704,-10.1229c0,-3.67419 0.98,-7.12186 2.69258,-10.0988c0.01125,-0.01928 0.01928,-0.03856 0.03052,-0.05784c0.01607,-0.02892 0.03534,-0.05462 0.05302,-0.08193c1.76239,-3.00908 4.27825,-5.52494 7.28572,-7.29054c0.03052,-0.02089 0.06105,-0.04177 0.09479,-0.06105c0.0241,-0.01446 0.0482,-0.0257 0.07229,-0.03856c2.97373,-1.70616 6.41658,-2.68295 10.08273,-2.68295s7.109,0.97678 10.08113,2.68295c0.0241,0.01285 0.0498,0.0241 0.0739,0.03856c0.03374,0.01928 0.06426,0.04016 0.09479,0.06105c3.00747,1.7656 5.52173,4.28147 7.28572,7.28894c0.01767,0.02731 0.03695,0.05462 0.05302,0.08354c0.01125,0.01928 0.01928,0.03856 0.03052,0.05784c1.71259,2.97695 2.69258,6.42461 2.69258,10.0988c0,3.68383 -0.98482,7.14113 -2.70704,10.1229z"/>
   <path id="svg_5" d="m62.73837,37.46727c0,-0.88682 0.71974,-1.60655 1.60655,-1.60655l2.67813,0c-0.18315,-1.95036 -0.69564,-3.80593 -1.47964,-5.51209l-2.31665,1.33665c-0.25384,0.1462 -0.53016,0.21688 -0.80167,0.21688c-0.55587,0 -1.09567,-0.28918 -1.39288,-0.80488c-0.44502,-0.76793 -0.18154,-1.74954 0.588,-2.19455l2.31344,-1.33505c-1.11174,-1.55836 -2.4757,-2.92232 -4.03406,-4.03245l-1.33665,2.31183c-0.29721,0.5157 -0.83701,0.80488 -1.39288,0.80488c-0.27151,0 -0.54784,-0.07069 -0.80167,-0.21688c-0.76793,-0.44341 -1.03141,-1.42501 -0.588,-2.19455l1.33826,-2.31665c-1.70616,-0.784 -3.56173,-1.29488 -5.51209,-1.47803l0,2.67652c0,0.88682 -0.71974,1.60655 -1.60655,1.60655s-1.60655,-0.71974 -1.60655,-1.60655l0,-2.67652c-1.95036,0.18315 -3.80593,0.69403 -5.51209,1.47803l1.33826,2.31665c0.44341,0.76954 0.17993,1.75114 -0.588,2.19455c-0.25384,0.1462 -0.53016,0.21688 -0.80167,0.21688c-0.55587,0 -1.09567,-0.28918 -1.39288,-0.80488l-1.33665,-2.31183c-1.55836,1.11013 -2.92232,2.47409 -4.03406,4.03245l2.31344,1.33505c0.76954,0.44502 1.03301,1.42662 0.588,2.19455c-0.29721,0.5157 -0.83701,0.80488 -1.39288,0.80488c-0.27151,0 -0.54784,-0.07069 -0.80167,-0.21688l-2.31665,-1.33665c-0.784,1.70616 -1.29649,3.56173 -1.47964,5.51209l2.67813,0c0.88682,0 1.60655,0.71974 1.60655,1.60655s-0.71974,1.60655 -1.60655,1.60655l-2.67813,0c0.18315,1.95036 0.69403,3.80753 1.47803,5.51369l2.31826,-1.33987c0.76954,-0.44341 1.75114,-0.17993 2.19455,0.588c0.44502,0.76954 0.18154,1.75114 -0.588,2.19455l-2.31504,1.33665c1.11013,1.55996 2.4757,2.92393 4.03406,4.03566l1.33826,-2.31504c0.44341,-0.76954 1.42501,-1.03301 2.19455,-0.588c0.76793,0.44341 1.03141,1.42501 0.588,2.19455l-1.33987,2.31826c1.70616,0.78561 3.56334,1.29649 5.51369,1.47964l0,-2.67973c0,-0.88842 0.71974,-1.60655 1.60655,-1.60655s1.60655,0.71813 1.60655,1.60655l0,2.67973c1.95036,-0.18315 3.80753,-0.69403 5.51369,-1.47964l-1.33987,-2.31826c-0.44341,-0.76954 -0.17993,-1.75114 0.588,-2.19455c0.76954,-0.44502 1.75114,-0.18154 2.19455,0.588l1.33826,2.31504c1.55836,-1.11174 2.92393,-2.4757 4.03406,-4.03566l-2.31504,-1.33665c-0.76954,-0.44341 -1.03301,-1.42501 -0.588,-2.19455c0.44341,-0.76793 1.42501,-1.03141 2.19455,-0.588l2.31826,1.33987c0.784,-1.70616 1.29488,-3.56334 1.47803,-5.51369l-2.67813,0c-0.88682,0 -1.60655,-0.71974 -1.60655,-1.60655zm-9.52687,0.03374c0,0.03213 -0.00161,0.06426 -0.00482,0.09639c-0.06908,1.71259 -1.47803,3.08458 -3.20668,3.08458s-3.1376,-1.372 -3.20668,-3.08458c-0.00321,-0.03213 -0.00482,-0.06426 -0.00482,-0.09639c0,-0.01125 -0.00161,-0.02089 -0.00161,-0.03213c0,-0.01285 0.00161,-0.0241 0.00161,-0.03695c0.00161,-0.03052 0.00161,-0.05944 0.00482,-0.08836c0.00964,-0.23456 0.04338,-0.46269 0.10121,-0.68279l1.51819,-9.69716c0.1221,-0.78079 0.79524,-1.35754 1.58728,-1.35754s1.46518,0.57675 1.58728,1.35754l1.51819,9.69716c0.05784,0.2201 0.09157,0.44823 0.10121,0.68279c0.00321,0.02892 0.00321,0.05784 0.00482,0.08836c0,0.01285 0.00161,0.0241 0.00161,0.03695c0,0.01125 -0.00161,0.02089 -0.00161,0.03213z"/>
  </g>
 </g>
</svg>