<svg width="100.00000000000001" height="100.00000000000001" xmlns="http://www.w3.org/2000/svg" version="1.1">

 <g>
  <title>Layer 1</title>
  <path id="svg_1" fill-rule="evenodd" d="m55.55708,55.98875c-0.01953,-0.05469 -0.04297,-0.10938 -0.07031,-0.16797c-0.33984,0.38672 -0.75781,0.70313 -1.2266,0.92188c-1.0977,0.46875 -2.3242,0.53125 -3.4609,0.17578c-0.32422,-0.08203 -0.58594,-0.31641 -0.69922,-0.62891c-0.11328,-0.3125 -0.0625,-0.66406 0.13281,-0.92969c2.1875,-3.0156 1.2891,-5.1016 -0.25781,-7.4102c-0.22656,0.30078 -0.47266,0.61328 -0.72656,0.94922c-2.0664,2.6758 -4.9844,6.4648 -4.9844,8.1016l-0.00391,-0.00391c0.01563,1.3594 0.61328,2.6484 1.6406,3.5391c2.3594,2.0234 5.8438,2.0234 8.2031,0c1.0273,-0.89062 1.625,-2.1797 1.6406,-3.543c0.00781,-0.34375 -0.05859,-0.68359 -0.18359,-1.0039l-0.00381,0zm0.79297,-2.6992c0.42188,0.62109 0.78125,1.2812 1.0742,1.9727c0.22266,0.55078 0.33594,1.1406 0.32812,1.7344c-0.01563,1.9297 -0.85547,3.7617 -2.3086,5.0312c-3.1211,2.7148 -7.7617,2.7148 -10.883,0c-1.4531,-1.2695 -2.293,-3.1016 -2.3086,-5.0312c0,-2.3086 3.168,-6.418 5.4102,-9.3203c0.60547,-0.78516 1.1406,-1.4805 1.5195,-2.0195l0,-0.00391c0.15234,-0.21875 0.38672,-0.36719 0.64844,-0.41406c0.26562,-0.04687 0.53516,0.01563 0.75,0.17188c0.10156,0.07032 0.1875,0.15625 0.25781,0.25781l0.03516,0.05079c2.1445,3.0547 3.9258,5.5859 1.8867,9.3945c0.22266,-0.02344 0.44141,-0.08594 0.64844,-0.17969c0.5625,-0.3125 0.98438,-0.83594 1.1641,-1.4531c0.13281,-0.35547 0.45313,-0.60547 0.83203,-0.64453c0.375,-0.04297 0.74219,0.13281 0.94922,0.45311l-0.00372,-0.0001zm-17.5,-29.801l3.5273,0l0.00391,-9.3672c-0.00782,-2.2734 -1.8477,-4.1133 -4.1211,-4.1211l-2.3711,0c-1.2734,0.02734 -2.293,1.0664 -2.293,2.3398c0,1.2773 1.0195,2.3164 2.293,2.3438l1.9609,0c0.26562,0 0.51953,0.10547 0.70703,0.29297s0.29297,0.44141 0.29297,0.70703l0.00009,7.8047zm18.766,0l3.5273,0l0,-7.8008l0.00391,0c0,-0.55078 0.44531,-1 1,-1l1.9609,0c1.2734,-0.02734 2.293,-1.0664 2.293,-2.3398c0,-1.2773 -1.0195,-2.3164 -2.293,-2.3438l-2.3633,0c-2.2773,0.00391 -4.1172,1.8477 -4.125,4.125l0,9.3594l-0.00381,0zm3.9609,62.312l-23.148,0l-2.4258,4.1992l28,0l-2.4297,-4.1992l0.0035,0zm-17.184,-62.312l2.3945,0l0,-4.0352c0,-0.55078 0.44922,-1 1,-1l4.4219,0c0.26562,0 0.51953,0.10547 0.70703,0.29297s0.29297,0.44531 0.29297,0.70703l0,4.0352l2.4023,0l0,-8.3594l-11.219,0l0.0003,8.3594zm26.609,15.012l-42,0c-0.58984,0.00391 -1.0703,0.48047 -1.0703,1.0703c0.00391,0.58984 0.48047,1.0664 1.0703,1.0703l42,0c0.0625,0 0.125,-0.00391 0.1875,-0.01562l0.01562,0c0.5,-0.10156 0.86328,-0.54297 0.86328,-1.0547c-0.0039,-0.58594 -0.47656,-1.0664 -1.0664,-1.0703l0,0.00002zm-41.379,-2.0117l40.758,0l0,-2.7656c-0.01563,-4.5352 -3.6914,-8.207 -8.2266,-8.2227l-24.301,0c-4.5352,0.01563 -8.2109,3.6875 -8.2266,8.2266l0,2.7656l-0.0038,-0.0039zm41.379,32.156l-42,0c-0.0625,0 -0.125,0.00391 -0.1875,0.01563l-0.01563,0c-0.5,0.10156 -0.86328,0.54297 -0.86328,1.0547c0,0.58984 0.47656,1.0703 1.0664,1.0742l42,0c0.0625,0 0.125,-0.00391 0.1875,-0.01563l0.01563,0c0.5,-0.10156 0.86328,-0.53906 0.86328,-1.0508c0,-0.59375 -0.47656,-1.0742 -1.0664,-1.0781zm-0.62109,4.1562l-40.758,0l0,2.7656l0,-0.00391c0.01562,4.5391 3.6914,8.2109 8.2266,8.2266l24.301,0c4.5352,-0.01562 8.2109,-3.6875 8.2266,-8.2266l0,-2.7617l0.0038,0.00001zm-40.758,-6.1641l0,-23.988l40.758,0l0,23.988l-40.758,0zm19.172,-43.148l0,-3.0273l2.4141,0l0,3.0312l-2.4141,-0.0039z"/>
 </g>
</svg>