<svg width="100" height="100" xmlns="http://www.w3.org/2000/svg" version="1.1">
 <title>Milk</title>

 <g>
  <title>Layer 1</title>
  <g id="svg_1">
   <path id="svg_2" d="m48.74539,53.76574l0.07532,0c0,-0.89129 0.22596,-1.7449 0.66531,-2.51062l-4.29319,0c0.51467,1.45616 1.9206,2.51062 3.55254,2.51062l0.00002,0z"/>
   <path id="svg_3" d="m59.36469,63.79535l-3.6655,0c-1.15488,0 -2.13398,0.77829 -2.42272,1.883c0.28872,1.10467 1.26784,1.89554 2.42272,1.89554l3.6655,0c1.15488,0 2.13398,-0.79085 2.42272,-1.89554c-0.28872,-1.10467 -1.26784,-1.883 -2.42272,-1.883z"/>
   <path id="svg_4" d="m61.24786,51.25432l-7.43142,0c-0.74064,0 -1.43101,0.32638 -1.90807,0.89129c-0.48957,0.56488 -0.69042,1.30552 -0.56488,2.03356l1.35573,8.10949c0.84108,-0.62765 1.87039,-1.00425 3.00021,-1.00425l3.6655,0c1.12974,0 2.15913,0.37659 3.00021,1.00425l1.35573,-8.10949c0.12553,-0.72808 -0.07532,-1.46869 -0.56488,-2.03356c-0.47702,-0.56488 -1.16742,-0.89129 -1.90807,-0.89129l-0.00005,0z"/>
   <path id="svg_5" d="m66.24419,53.76574l0.07532,0c1.63186,0 3.03781,-1.05446 3.55254,-2.51062l-4.29319,0c0.43936,0.76573 0.66531,1.61933 0.66531,2.51062l0.00002,0z"/>
   <path id="svg_6" d="m77.17762,36.41718l-5.61125,-10.26822l-36.00184,0c-0.69042,0 -1.25531,-0.56488 -1.25531,-1.25531s0.56488,-1.25531 1.25531,-1.25531l35.14863,0l0,-5.02123c0,-2.07124 -1.69469,-3.76592 -3.76592,-3.76592l-33.89372,0c-2.07124,0 -3.76592,1.69469 -3.76592,3.76592l0,6.27654c0,0.22596 0.06277,0.43936 0.16319,0.64021l1.09214,1.98343l5.51082,10.10513c0.4017,0.74064 0.66531,1.58173 0.74064,2.4604c0.01256,0.17574 0.02511,0.36404 0.02511,0.53979l0,38.24894c0,0.69042 -0.56488,1.25531 -1.25531,1.25531s-1.25531,-0.56488 -1.25531,-1.25531l0,-38.24894c0,-0.11297 -0.01255,-0.23851 -0.01255,-0.35149c-0.05021,-0.47702 -0.20085,-0.99171 -0.45191,-1.45616l-6.16358,-11.29737l-4.85806,8.90003c-0.69042,1.28045 -1.06699,2.73653 -1.06699,4.2053l0,39.50465c0,2.77421 2.24702,5.02123 5.02123,5.02123l46.446,0c2.77421,0 5.02123,-2.24702 5.02123,-5.02123l0,-39.50465c0,-1.46869 -0.37659,-2.92485 -1.06699,-4.2053l0.00038,-0.00045zm-10.85872,19.85918l-0.4017,0l-1.60679,9.61586c0,0.01255 -0.01256,0.03766 -0.01256,0.06276c0,0.01256 -0.01255,0.02511 -0.01255,0.05021c-0.45191,2.37252 -2.49808,4.07974 -4.92081,4.07974l-3.6655,0c-2.42272,0 -4.4689,-1.70722 -4.92081,-4.07974c0,-0.02511 -0.01256,-0.03766 -0.01256,-0.05021c0,-0.02511 -0.01255,-0.05021 -0.01255,-0.06276l-1.60679,-9.61586l-0.4017,0c-3.46465,0 -6.27654,-2.81189 -6.27654,-6.27654c0,-0.69042 0.56488,-1.25531 1.25531,-1.25531l4.43122,0c-0.89129,-0.95403 -1.54405,-2.13398 -1.883,-3.46465c-0.16319,-0.66531 0.23851,-1.35573 0.91635,-1.5189c0.66531,-0.16319 1.35573,0.23851 1.5189,0.91635c0.60255,2.39766 2.74914,4.0672 5.20955,4.0672l7.23057,0c2.4604,0 4.607,-1.66954 5.20955,-4.0672c0.16319,-0.67787 0.85361,-1.07961 1.5189,-0.91635c0.67787,0.16319 1.07961,0.85361 0.91635,1.5189c-0.33894,1.33059 -0.99171,2.51062 -1.883,3.46465l4.43122,0c0.69042,0 1.25531,0.56488 1.25531,1.25531c0,3.46465 -2.81189,6.27654 -6.27654,6.27654l0.00016,0z"/>
  </g>
 </g>
</svg>