<svg width="100.00000000000001" height="100.00000000000001" xmlns="http://www.w3.org/2000/svg" version="1.1">
 <title>vapor</title>

 <g>
  <title>Layer 1</title>
  <g id="svg_6">
   <path id="svg_1" d="m57.18766,16.80232c-0.74889,-0.84167 -2.06105,-0.41605 -2.19549,0.62728c-0.57288,5.85673 -1.15539,11.02212 -2.66594,15.08014c-1.65778,4.79425 -4.3302,7.77702 -8.41673,12.84672c-1.96183,2.51232 -4.44219,5.68713 -5.87918,10.14546c-1.22896,4.19255 -1.22257,8.32743 -0.43526,12.01102c1.3698,6.4776 4.53822,12.02086 9.15329,16.09199c0.7777,0.69449 1.97141,0.09281 2.03229,-0.96654c-0.016,-5.9752 -0.03521,-11.18516 0.66569,-15.79048c0.44806,-2.58917 1.05617,-4.83898 1.94266,-6.57681c0.67849,-1.46902 2.14109,-3.39561 4.09014,-5.83436c1.87547,-2.45472 4.14774,-5.36391 5.78954,-8.93863c1.71546,-3.5589 2.62112,-7.66182 2.56992,-11.57925c-0.25603,-6.71126 -2.75877,-12.50097 -6.65047,-17.11612l-0.00045,-0.00043z"/>
   <path id="svg_2" d="m41.44797,11.70403c-0.57288,-0.95695 -1.98428,-0.7841 -2.28193,0.30404c-1.04011,4.00051 -1.97141,7.48895 -3.52367,10.23805c-1.757,3.39561 -4.0581,5.30632 -7.71622,8.62483c-1.71219,1.645 -3.8949,3.73169 -5.53351,6.92248c-1.37619,3.0148 -1.83705,6.06155 -1.65139,8.93207c0.26884,4.72379 1.88186,8.878 4.551,12.3281c0.65929,0.89935 2.04507,0.48967 2.25309,-0.54087c0.61128,-4.16371 1.19373,-7.79938 2.14109,-10.97706c0.60808,-1.869 1.31859,-3.48525 2.17305,-4.69184c0.66569,-1.01455 1.99067,-2.27865 3.68688,-3.85008c1.62264,-1.58741 3.62928,-3.55562 5.26789,-5.97839c1.63861,-2.42588 2.77794,-5.41193 3.13638,-8.32415c0.69129,-4.91264 -0.34565,-9.25898 -2.50273,-12.98764l0.00008,0.00047z"/>
   <path id="svg_3" d="m79.29663,52.12883c0.05441,-4.81342 -1.54259,-9.04104 -4.06769,-12.45918c-0.65929,-0.89935 -2.10267,-0.57927 -2.25309,0.54087c-0.52486,4.10612 -1.09132,7.66502 -2.28832,10.56495c-1.33137,3.5589 -3.45649,5.73195 -6.65686,9.45069c-1.52022,1.83705 -3.45321,4.20214 -4.65341,7.48256c-1.02094,3.16203 -1.10098,6.20878 -0.60808,9.06644c0.82889,4.6086 2.92517,8.63139 5.96553,11.77425c0.7649,0.7681 2.08989,0.26883 2.15068,-0.7905c0.15682,-4.17977 0.22083,-7.91785 0.8769,-11.15649c0.38725,-1.91382 0.88968,-3.64845 1.61305,-4.95746c0.60488,-1.10418 1.72824,-2.48348 3.23241,-4.24695c1.43059,-1.77945 3.24519,-3.93652 4.5478,-6.58329c1.31859,-2.72673 2.08989,-5.78635 2.14109,-8.68628l-0.00001,0.00039z"/>
  </g>
 </g>
</svg>